<svg xmlns="http://www.w3.org/2000/svg" version="1.1" xmlns:xlink="http://www.w3.org/1999/xlink" xmlns:svgjs="http://svgjs.dev/svgjs" width="2000" height="2250" viewBox="0 0 2000 2250"><g transform="matrix(1,0,0,1,0.0005875000000514774,0)"><svg viewBox="0 0 320 360" data-background-color="#000000" preserveAspectRatio="xMidYMid meet" height="2250" width="2000" xmlns="http://www.w3.org/2000/svg" xmlns:xlink="http://www.w3.org/1999/xlink"><g id="tight-bounds" transform="matrix(1,0,0,1,-0.000046999999995023245,0)"><svg viewBox="0 0 320 360" height="360" width="320"><rect width="320.000141" height="360" fill="url(#680d1bb9-4120-4158-89c9-093059f4545f)" mask="url(#be12c51b-015b-4344-938a-7b468ad4c7eb)" data-fill-palette-color="tertiary"></rect><g><svg></svg></g><g><svg viewBox="0 0 320 360" height="360" width="320"><g><path transform="translate(-74.99272,-51.79039) scale(4.65793,4.65793)" d="M20.6 59.9l0.8 1-0.4-1.3c-0.1-0.6-0.8 0.1-0.4 0.3M21.5 59.3c0.3 0.5 0.6 1 0.6 1.5 0 0.7 0.6 1 1.1 1.2-0.7-0.8-1.1-3-1.7-2.7M59.9 16.9c1.7 0 3.3-0.2 5.1 0.2 4.4 1.1 8.1 3.3 10.6 6.4l7 11.2c0.3 2.8 0.9 5.9 0.8 9.3 0.7 0 0.6-1 1.4-1.2-0.8 2-1.2 4.5-1.4 7.4-0.5-1.6 0-4 0.1-5.3-0.7 1.1-1.1 0.3-1.1-0.2 0.1-0.8-0.3-0.7-0.6-1-1.1-1-1.8-2.1-2.6-3.8 0.5-1.3 0.6-3.2-1-4.2-0.5-0.3-1.1-0.8-1.4-1.6-0.4-1.1-1.1-2.4-0.9-4.1 0.1-0.5-1.5 1.1-2.4 0.4-3.9-2.7-7.8-5.8-12.5-8.4-2.5 0-4.3-0.9-5.2-2-0.8-1-0.2-2.3 1-2.4 0.7 0 1.5-0.2 2.1 0.2 0.1-0.4 0.5-0.9 1-0.9M50 14.6l0.2 0.1c1 0.2 1.5 1.6 2.6 1.1 0 0.7 0.1 1.4-0.1 1.9-0.3 0.8-1.2 0.8-1.9 0.8-6.7-0.4-10.6 2.4-14.7 4.8-1.1 0.7-2.3 1.2-3.2 2.1-4.3 4-9 7.7-10.1 15.1l-0.9 8.2c-0.1 0.9-1.1 1.8-0.9 2.9l0.7 4.9c-0.7-0.7-1.1 0.2-0.9 0.6 0.1 0.3 0.5 1.3 1.1 0.4 0.8 1.5 1.6 4.4 2.7 5.7 3.4 4 7.8 7.6 11.4 11.2 0.9-0.2 1.6-0.2 1.8-0.8 0.3 0.6-0.3 1.2-0.8 1.3 1.6 1 3.4 1.9 5.8 2.1 3.1 0.2 6 0.7 8.7 1.4 1.4-0.4 2.8-0.6 4.3-0.7 0.5 0 0.8-0.8 1.4-1l0.1-1c0.6 0.9 0.5-0.3 0.1-0.9 0.7 0.6 0.9 1.1 1.2 1.5 0-0.3 0.8-1.4 0.8-0.1l0.2-1.3c0.3-0.2 0.4 1.1 0.7 0.2 0.3-0.9 0.9-0.2 1.5-0.5-0.2 0.4-0.1 1.2 0.6 0.7l0.8-0.7c0.5 1.2 1.3 0.7 1.7 0.5 4.4-2.8 8.8-6.1 13-9.4l-0.1 1.3 0.5-1.6c0.5 0.5 0.9 0.1 1.1-0.2 0.6-1 1.4-2 2.7-2.9-1.6 4.3-3.5 7.7-5.9 10.5l-1 1.2c0 0.7-0.2 1.6-1 1.7-0.4 0.1-1.2-0.2-1.8 0.4-0.3 0.4 0.7 1.2-0.1 0.6-0.7-0.5-1.4 0-2.2 0.2-0.6 0.2 0.4 0.8 0.6 1.2 0.2 0.4 0.4 0.8 0.3 1.3l-1.1-1.2c-1.3 0.7-2.1 2-3.2 3-0.5 0.4-0.3 1.1-0.3 1.7-0.7 0-1.5-0.2-1.9 0.2-0.3 0.4-0.2 1-0.2 1.6-1-0.1-1.1-1.6-2-1.3-0.9 0.2-1.9 0.3-2.7 0.8 0.6 1.2-1 0.5-0.8 0.7-1.5-0.9-2.8-1.6-4.4-1-3.4-1.1-7.6-0.6-10.7-0.2 0-0.5 0.1-1-0.1-1.1-0.2 0.5-0.8 0.3-0.7 0.3-1.9-1.3-3.8-2.1-5.8-3.2-1.8 0.2-3.5-0.7-4-1.2-1.4-1.3-3-0.6-4.3-0.9-2.8-0.7-3.8-3.6-4.1-5.6-0.2-1-1-1.4-1.3-1.3-1.3-4.2-3.3-8-4.9-11.9-0.4-1-0.3-2-0.3-3.1 0.5 0.2 1 0.1 0.9-0.6-0.5-3.3-1.7-5.8-3-8.2 0.7-3.4 0.8-7.4 2.4-10.4 1.4-2.7 4-4.1 5.8-6.4 0.6-0.8 0.6-1.9 1.2-2.6 2-2 4-4.1 6.2-5.9 1-0.8 2.2 0 3.7-0.3 0.5-1.8 2.5-3.4 4.4-2.9 0.8 0.2 2.4-1.9 2.9-2.1 0.8-0.3 0.4 0.8 0.4 1.5 1.9-1.5 4.5-2.3 6.9-3.2" fill="url(#680d1bb9-4120-4158-89c9-093059f4545f)" fill-rule="nonzero" stroke="none" stroke-width="1" stroke-linecap="butt" stroke-linejoin="miter" stroke-miterlimit="10" stroke-dasharray="" stroke-dashoffset="0" font-family="none" font-weight="none" font-size="none" text-anchor="none" style="mix-blend-mode: normal" data-fill-palette-color="tertiary"></path></g><g transform="matrix(1,0,0,1,97.14233345304595,90)"><svg viewBox="0 0 125.7153330939081 180" height="180" width="125.7153330939081"><g><svg viewBox="0 0 125.7153330939081 180" height="180" width="125.7153330939081"><g><svg viewBox="0 0 192 274.9068005426516" height="180" width="125.7153330939081"><g transform="matrix(1,0,0,1,0,138.5532548078109)"><svg viewBox="0 0 192 136.35354573484068" height="136.35354573484068" width="192"><g id="textblocktransform"><svg viewBox="0 0 192 136.35354573484068" height="136.35354573484068" width="192" id="textblock"><g><svg viewBox="0 0 192 136.35354573484068" height="136.35354573484068" width="192"><g transform="matrix(1,0,0,1,0,0)"><svg width="192" viewBox="2.15 -34 48.65 34.55" height="136.35354573484068" data-palette-color="url(#231ba12e-4001-459d-b3dc-b34efe24e202)"></svg></g></svg></g></svg></g></svg></g><g transform="matrix(1,0,0,1,36.672,0)"><svg viewBox="0 0 118.656 118.656" height="118.656" width="118.656"><g><svg xmlns="http://www.w3.org/2000/svg" xmlns:xlink="http://www.w3.org/1999/xlink" version="1.1" x="0" y="0" viewBox="1 1 126 126" style="enable-background:new 0 0 128 128;" xml:space="preserve" height="118.656" width="118.656" class="icon-icon-0" data-fill-palette-color="accent" id="icon-0"></svg></g></svg></g><g></g></svg></g></svg></g></svg></g></svg></g><defs></defs><mask id="05117050-3463-4729-905d-deb4fbf0c9ac"><g id="SvgjsG1133"><svg viewBox="0 0 320 360" height="360" width="320"><g><svg></svg></g><g><svg viewBox="0 0 320 360" height="360" width="320"><g><path transform="translate(-74.99272,-51.79039) scale(4.65793,4.65793)" d="M20.6 59.9l0.8 1-0.4-1.3c-0.1-0.6-0.8 0.1-0.4 0.3M21.5 59.3c0.3 0.5 0.6 1 0.6 1.5 0 0.7 0.6 1 1.1 1.2-0.7-0.8-1.1-3-1.7-2.7M59.9 16.9c1.7 0 3.3-0.2 5.1 0.2 4.4 1.1 8.1 3.3 10.6 6.4l7 11.2c0.3 2.8 0.9 5.9 0.8 9.3 0.7 0 0.6-1 1.4-1.2-0.8 2-1.2 4.5-1.4 7.4-0.5-1.6 0-4 0.1-5.3-0.7 1.1-1.1 0.3-1.1-0.2 0.1-0.8-0.3-0.7-0.6-1-1.1-1-1.8-2.1-2.6-3.8 0.5-1.3 0.6-3.2-1-4.2-0.5-0.3-1.1-0.8-1.4-1.6-0.4-1.1-1.1-2.4-0.9-4.1 0.1-0.5-1.5 1.1-2.4 0.4-3.9-2.7-7.8-5.8-12.5-8.4-2.5 0-4.3-0.9-5.2-2-0.8-1-0.2-2.3 1-2.4 0.7 0 1.5-0.2 2.1 0.2 0.1-0.4 0.5-0.9 1-0.9M50 14.6l0.2 0.1c1 0.2 1.5 1.6 2.6 1.1 0 0.7 0.1 1.4-0.1 1.9-0.3 0.8-1.2 0.8-1.9 0.8-6.7-0.4-10.6 2.4-14.7 4.8-1.1 0.7-2.3 1.2-3.2 2.1-4.3 4-9 7.7-10.1 15.1l-0.9 8.2c-0.1 0.9-1.1 1.8-0.9 2.9l0.7 4.9c-0.7-0.7-1.1 0.2-0.9 0.6 0.1 0.3 0.5 1.3 1.1 0.4 0.8 1.5 1.6 4.4 2.7 5.7 3.4 4 7.8 7.6 11.4 11.2 0.9-0.2 1.6-0.2 1.8-0.8 0.3 0.6-0.3 1.2-0.8 1.3 1.6 1 3.4 1.9 5.8 2.1 3.1 0.2 6 0.7 8.7 1.4 1.4-0.4 2.8-0.6 4.3-0.7 0.5 0 0.8-0.8 1.4-1l0.1-1c0.6 0.9 0.5-0.3 0.1-0.9 0.7 0.6 0.9 1.1 1.2 1.5 0-0.3 0.8-1.4 0.8-0.1l0.2-1.3c0.3-0.2 0.4 1.1 0.7 0.2 0.3-0.9 0.9-0.2 1.5-0.5-0.2 0.4-0.1 1.2 0.6 0.7l0.8-0.7c0.5 1.2 1.3 0.7 1.7 0.5 4.4-2.8 8.8-6.1 13-9.4l-0.1 1.3 0.5-1.6c0.5 0.5 0.9 0.1 1.1-0.2 0.6-1 1.4-2 2.7-2.9-1.6 4.3-3.5 7.7-5.9 10.5l-1 1.2c0 0.7-0.2 1.6-1 1.7-0.4 0.1-1.2-0.2-1.8 0.4-0.3 0.4 0.7 1.2-0.1 0.6-0.7-0.5-1.4 0-2.2 0.2-0.6 0.2 0.4 0.8 0.6 1.2 0.2 0.4 0.4 0.8 0.3 1.3l-1.1-1.2c-1.3 0.7-2.1 2-3.2 3-0.5 0.4-0.3 1.1-0.3 1.7-0.7 0-1.5-0.2-1.9 0.2-0.3 0.4-0.2 1-0.2 1.6-1-0.1-1.1-1.6-2-1.3-0.9 0.2-1.9 0.3-2.7 0.8 0.6 1.2-1 0.5-0.8 0.7-1.5-0.9-2.8-1.6-4.4-1-3.4-1.1-7.6-0.6-10.7-0.2 0-0.5 0.1-1-0.1-1.1-0.2 0.5-0.8 0.3-0.7 0.3-1.9-1.3-3.8-2.1-5.8-3.2-1.8 0.2-3.5-0.7-4-1.2-1.4-1.3-3-0.6-4.3-0.9-2.8-0.7-3.8-3.6-4.1-5.6-0.2-1-1-1.4-1.3-1.3-1.3-4.2-3.3-8-4.9-11.9-0.4-1-0.3-2-0.3-3.1 0.5 0.2 1 0.1 0.9-0.6-0.5-3.3-1.7-5.8-3-8.2 0.7-3.4 0.8-7.4 2.4-10.4 1.4-2.7 4-4.1 5.8-6.4 0.6-0.8 0.6-1.9 1.2-2.6 2-2 4-4.1 6.2-5.9 1-0.8 2.2 0 3.7-0.3 0.5-1.8 2.5-3.4 4.4-2.9 0.8 0.2 2.4-1.9 2.9-2.1 0.8-0.3 0.4 0.8 0.4 1.5 1.9-1.5 4.5-2.3 6.9-3.2" fill="black" fill-rule="nonzero" stroke="none" stroke-width="1" stroke-linecap="butt" stroke-linejoin="miter" stroke-miterlimit="10" stroke-dasharray="" stroke-dashoffset="0" font-family="none" font-weight="none" font-size="none" text-anchor="none" style="mix-blend-mode: normal"></path></g><g transform="matrix(1,0,0,1,97.14233345304595,90)"><svg viewBox="0 0 125.7153330939081 180" height="180" width="125.7153330939081"><g><svg viewBox="0 0 125.7153330939081 180" height="180" width="125.7153330939081"><g><svg viewBox="0 0 192 274.9068005426516" height="180" width="125.7153330939081"><g transform="matrix(1,0,0,1,0,138.5532548078109)"><svg viewBox="0 0 192 136.35354573484068" height="136.35354573484068" width="192"><g id="SvgjsG1132"><svg viewBox="0 0 192 136.35354573484068" height="136.35354573484068" width="192" id="SvgjsSvg1131"><g><svg viewBox="0 0 192 136.35354573484068" height="136.35354573484068" width="192"><g transform="matrix(1,0,0,1,0,0)"><svg width="192" viewBox="2.15 -34 48.65 34.55" height="136.35354573484068" data-palette-color="url(#231ba12e-4001-459d-b3dc-b34efe24e202)"><path d="M5.6 0.5L5.6 0.5Q5 0.5 4.38 0.3 3.75 0.1 3.35-0.65 2.95-1.4 2.95-2.95L2.95-2.95Q2.95-3.95 3.13-5.53 3.3-7.1 3.5-8.6L3.5-8.6Q3.9-11.1 4.23-14.1 4.55-17.1 4.55-20.05L4.55-20.05Q4.55-21.1 4.5-22.25 4.45-23.4 4.3-24.45L4.3-24.45Q4-24.3 3.63-24.18 3.25-24.05 3-24.05L3-24.05Q2.5-24.05 2.33-24.58 2.15-25.1 2.15-25.8L2.15-25.8Q2.15-27.4 2.93-28.38 3.7-29.35 5.25-30.15L5.25-30.15Q7.3-31.3 9.63-31.83 11.95-32.35 14.05-32.35L14.05-32.35Q17.15-32.35 19.55-31.25 21.95-30.15 23.3-28.15 24.65-26.15 24.65-23.35L24.65-23.35Q24.65-20.45 23.28-18.2 21.9-15.95 19.78-14.53 17.65-13.1 15.45-12.65L15.45-12.65Q16.25-11.4 17.18-10.15 18.1-8.9 19.05-7.9L19.05-7.9Q21.9-4.95 24.85-4.95L24.85-4.95Q25.65-4.95 26.25-5.05L26.25-5.05Q26.55-5.1 26.78-4.83 27-4.55 27-3.75L27-3.75Q27-2.8 26.6-1.83 26.2-0.85 25.25-0.2 24.3 0.45 22.65 0.45L22.65 0.45Q20.7 0.45 18.93-0.85 17.15-2.15 15.65-4.17 14.15-6.2 12.98-8.45 11.8-10.7 11-12.6L11-12.6Q10.8-13.15 10.65-13.68 10.5-14.2 10.5-14.7L10.5-14.7Q10.5-15.55 11.05-16.1L11.05-16.1Q11.45-16.5 12.18-16.65 12.9-16.8 14.3-16.8L14.3-16.8Q16.95-16.8 18.6-18.25 20.25-19.7 20.25-22L20.25-22Q20.25-24.5 18.38-25.65 16.5-26.8 13.8-26.8L13.8-26.8Q11.6-26.8 9.2-26.1L9.2-26.1Q9.05-22.85 8.5-18.65L8.5-18.65Q8.2-16.15 7.98-13.7 7.75-11.25 7.75-9.25L7.75-9.25Q7.75-7.5 8.08-6.18 8.4-4.85 9.4-3.9L9.4-3.9Q10.1-3.2 10.1-2.4L10.1-2.4Q10.1-1.3 8.85-0.4 7.6 0.5 5.6 0.5ZM31.7 0.55L31.7 0.55Q31.15 0.55 30.65 0.23 30.15-0.1 30.25-0.65L30.25-0.65Q31-4.65 31.52-8.78 32.05-12.9 32.05-17.1L32.05-17.1Q32.05-20.8 31.8-23.8 31.55-26.8 30.2-29.55L30.2-29.55Q29.95-30.1 29.8-30.5 29.65-30.9 29.65-31.25L29.65-31.25Q29.65-32.2 30.75-33.1 31.85-34 33.1-34L33.1-34Q34.9-34 35.55-31.8 36.2-29.6 36.2-25.3L36.2-25.3Q36.2-20.15 35.6-16.32 35-12.5 34.55-10.5L34.55-10.5 34.75-10.4Q35.75-12.85 37.3-15.13 38.85-17.4 40.87-18.9 42.9-20.4 45.3-20.4L45.3-20.4Q47.65-20.4 48.92-19 50.2-17.6 50.2-15.65L50.2-15.65Q50.2-13.35 48.55-11.55 46.9-9.75 44.25-8.55L44.25-8.55Q44.9-6.85 46.1-5.88 47.3-4.9 49.15-4.9L49.15-4.9Q49.75-4.9 50.15-5L50.15-5Q50.8-5.15 50.8-3.75L50.8-3.75Q50.8-2.95 50.5-1.95 50.2-0.95 49.32-0.23 48.45 0.5 46.7 0.5L46.7 0.5Q44.35 0.5 42.87-0.88 41.4-2.25 40.57-4.28 39.75-6.3 39.3-8.3L39.3-8.3Q38.9-10.15 40.55-10.25L40.55-10.25Q42.3-10.45 43.5-11.3 44.7-12.15 44.7-13.55L44.7-13.55Q44.7-15.15 43.15-15.15L43.15-15.15Q42.15-15.15 41.12-14.43 40.1-13.7 39.22-12.7 38.35-11.7 37.8-10.75L37.8-10.75Q37.05-9.45 36.5-8.2 35.95-6.95 35.6-5.7L35.6-5.7 35.6-3.7Q35.6-1.85 34.52-0.65 33.45 0.55 31.7 0.55Z" opacity="1" transform="matrix(1,0,0,1,0,0)" fill="white" class="wordmark-text-0" id="SvgjsPath1130"></path></svg></g></svg></g></svg></g></svg></g><g transform="matrix(1,0,0,1,36.672,0)"><svg viewBox="0 0 118.656 118.656" height="118.656" width="118.656"><g><svg xmlns="http://www.w3.org/2000/svg" xmlns:xlink="http://www.w3.org/1999/xlink" version="1.1" x="0" y="0" viewBox="1 1 126 126" style="enable-background:new 0 0 128 128;" xml:space="preserve" height="118.656" width="118.656" class="icon-icon-0" data-fill-palette-color="accent" id="SvgjsSvg1129"><g fill="black"><path d="M110.937 52.703c-7.691-4.44-16.653-5.62-25.231-3.321-8.267 2.215-15.218 7.411-19.687 14.668 9.403 17.409 3.288 39.323-13.954 49.278-5.771 3.331-12.084 4.915-18.313 4.915-0.632 0-1.264-0.028-1.894-0.062C41.271 123.777 52.257 127 64 127c31.814 0 58.104-23.586 62.378-54.223C124.154 64.602 118.837 57.265 110.937 52.703z" fill="black"></path><path d="M64 1c-8.339 0-16.291 1.635-23.575 4.577C34.448 11.591 30.749 19.872 30.749 29c0 18.01 14.396 32.711 32.285 33.226 4.938-8.026 12.624-13.774 21.766-16.224 9.482-2.54 19.386-1.237 27.887 3.671 6.348 3.666 11.181 8.957 14.295 15.043C126.983 64.476 127 64.24 127 64 127 29.206 98.795 1 64 1z" fill="black"></path><path d="M50.314 110.297c15.598-9.006 21.13-28.825 12.632-44.574C43.168 65.162 27.249 48.91 27.249 29c0-7.337 2.17-14.175 5.891-19.918C13.961 19.882 1 40.421 1 64c0 20.167 9.486 38.105 24.228 49.636C33.414 115.793 42.419 114.854 50.314 110.297z" fill="black"></path></g></svg></g></svg></g><g></g></svg></g></svg></g></svg></g></svg></g><defs><mask></mask></defs></svg><rect width="320" height="360" fill="black" stroke="none" visibility="hidden"></rect></g></mask><linearGradient x1="0" x2="1" y1="0.578" y2="0.595" id="231ba12e-4001-459d-b3dc-b34efe24e202"><stop stop-color="#6ee2f5" offset="0"></stop><stop stop-color="#6454f0" offset="1"></stop></linearGradient><rect width="320.000047" height="360" fill="url(#231ba12e-4001-459d-b3dc-b34efe24e202)" mask="url(#05117050-3463-4729-905d-deb4fbf0c9ac)" data-fill-palette-color="primary"></rect><mask id="8bda92d2-d9e8-4dc1-b625-2362516ea79c"><g id="SvgjsG1152"><svg viewBox="0 0 320 360" height="360" width="320"><g><svg></svg></g><g><svg viewBox="0 0 320 360" height="360" width="320"><g><path transform="translate(-74.99272,-51.79039) scale(4.65793,4.65793)" d="M20.6 59.9l0.8 1-0.4-1.3c-0.1-0.6-0.8 0.1-0.4 0.3M21.5 59.3c0.3 0.5 0.6 1 0.6 1.5 0 0.7 0.6 1 1.1 1.2-0.7-0.8-1.1-3-1.7-2.7M59.9 16.9c1.7 0 3.3-0.2 5.1 0.2 4.4 1.1 8.1 3.3 10.6 6.4l7 11.2c0.3 2.8 0.9 5.9 0.8 9.3 0.7 0 0.6-1 1.4-1.2-0.8 2-1.2 4.5-1.4 7.4-0.5-1.6 0-4 0.1-5.3-0.7 1.1-1.1 0.3-1.1-0.2 0.1-0.8-0.3-0.7-0.6-1-1.1-1-1.8-2.1-2.6-3.8 0.5-1.3 0.6-3.2-1-4.2-0.5-0.3-1.1-0.8-1.4-1.6-0.4-1.1-1.1-2.4-0.9-4.1 0.1-0.5-1.5 1.1-2.4 0.4-3.9-2.7-7.8-5.8-12.5-8.4-2.5 0-4.3-0.9-5.2-2-0.8-1-0.2-2.3 1-2.4 0.7 0 1.5-0.2 2.1 0.2 0.1-0.4 0.5-0.9 1-0.9M50 14.6l0.2 0.1c1 0.2 1.5 1.6 2.6 1.1 0 0.7 0.1 1.4-0.1 1.9-0.3 0.8-1.2 0.8-1.9 0.8-6.7-0.4-10.6 2.4-14.7 4.8-1.1 0.7-2.3 1.2-3.2 2.1-4.3 4-9 7.7-10.1 15.1l-0.9 8.2c-0.1 0.9-1.1 1.8-0.9 2.9l0.7 4.9c-0.7-0.7-1.1 0.2-0.9 0.6 0.1 0.3 0.5 1.3 1.1 0.4 0.8 1.5 1.6 4.4 2.7 5.7 3.4 4 7.8 7.6 11.4 11.2 0.9-0.2 1.6-0.2 1.8-0.8 0.3 0.6-0.3 1.2-0.8 1.3 1.6 1 3.4 1.9 5.8 2.1 3.1 0.2 6 0.7 8.7 1.4 1.4-0.4 2.8-0.6 4.3-0.7 0.5 0 0.8-0.8 1.4-1l0.1-1c0.6 0.9 0.5-0.3 0.1-0.9 0.7 0.6 0.9 1.1 1.2 1.5 0-0.3 0.8-1.4 0.8-0.1l0.2-1.3c0.3-0.2 0.4 1.1 0.7 0.2 0.3-0.9 0.9-0.2 1.5-0.5-0.2 0.4-0.1 1.2 0.6 0.7l0.8-0.7c0.5 1.2 1.3 0.7 1.7 0.5 4.4-2.8 8.8-6.1 13-9.4l-0.1 1.3 0.5-1.6c0.5 0.5 0.9 0.1 1.1-0.2 0.6-1 1.4-2 2.7-2.9-1.6 4.3-3.5 7.7-5.9 10.5l-1 1.2c0 0.7-0.2 1.6-1 1.7-0.4 0.1-1.2-0.2-1.8 0.4-0.3 0.4 0.7 1.2-0.1 0.6-0.7-0.5-1.4 0-2.2 0.2-0.6 0.2 0.4 0.8 0.6 1.2 0.2 0.4 0.4 0.8 0.3 1.3l-1.1-1.2c-1.3 0.7-2.1 2-3.2 3-0.5 0.4-0.3 1.1-0.3 1.7-0.7 0-1.5-0.2-1.9 0.2-0.3 0.4-0.2 1-0.2 1.6-1-0.1-1.1-1.6-2-1.3-0.9 0.2-1.9 0.3-2.7 0.8 0.6 1.2-1 0.5-0.8 0.7-1.5-0.9-2.8-1.6-4.4-1-3.4-1.1-7.6-0.6-10.7-0.2 0-0.5 0.1-1-0.1-1.1-0.2 0.5-0.8 0.3-0.7 0.3-1.9-1.3-3.8-2.1-5.8-3.2-1.8 0.2-3.5-0.7-4-1.2-1.4-1.3-3-0.6-4.3-0.9-2.8-0.7-3.8-3.6-4.1-5.6-0.2-1-1-1.4-1.3-1.3-1.3-4.2-3.3-8-4.9-11.9-0.4-1-0.3-2-0.3-3.1 0.5 0.2 1 0.1 0.9-0.6-0.5-3.3-1.7-5.8-3-8.2 0.7-3.4 0.8-7.4 2.4-10.4 1.4-2.7 4-4.1 5.8-6.4 0.6-0.8 0.6-1.9 1.2-2.6 2-2 4-4.1 6.2-5.9 1-0.8 2.2 0 3.7-0.3 0.5-1.8 2.5-3.4 4.4-2.9 0.8 0.2 2.4-1.9 2.9-2.1 0.8-0.3 0.4 0.8 0.4 1.5 1.9-1.5 4.5-2.3 6.9-3.2" fill="black" fill-rule="nonzero" stroke="none" stroke-width="1" stroke-linecap="butt" stroke-linejoin="miter" stroke-miterlimit="10" stroke-dasharray="" stroke-dashoffset="0" font-family="none" font-weight="none" font-size="none" text-anchor="none" style="mix-blend-mode: normal"></path></g><g transform="matrix(1,0,0,1,97.14233345304595,90)"><svg viewBox="0 0 125.7153330939081 180" height="180" width="125.7153330939081"><g><svg viewBox="0 0 125.7153330939081 180" height="180" width="125.7153330939081"><g><svg viewBox="0 0 192 274.9068005426516" height="180" width="125.7153330939081"><g transform="matrix(1,0,0,1,0,138.5532548078109)"><svg viewBox="0 0 192 136.35354573484068" height="136.35354573484068" width="192"><g id="SvgjsG1151"><svg viewBox="0 0 192 136.35354573484068" height="136.35354573484068" width="192" id="SvgjsSvg1150"><g><svg viewBox="0 0 192 136.35354573484068" height="136.35354573484068" width="192"><g transform="matrix(1,0,0,1,0,0)"><svg width="192" viewBox="2.15 -34 48.65 34.55" height="136.35354573484068" data-palette-color="url(#231ba12e-4001-459d-b3dc-b34efe24e202)"></svg></g></svg></g></svg></g></svg></g><g transform="matrix(1,0,0,1,36.672,0)"><svg viewBox="0 0 118.656 118.656" height="118.656" width="118.656"><g><svg xmlns="http://www.w3.org/2000/svg" xmlns:xlink="http://www.w3.org/1999/xlink" version="1.1" x="0" y="0" viewBox="1 1 126 126" style="enable-background:new 0 0 128 128;" xml:space="preserve" height="118.656" width="118.656" class="icon-icon-0" data-fill-palette-color="accent" id="SvgjsSvg1149"><g fill="white"><path d="M110.937 52.703c-7.691-4.44-16.653-5.62-25.231-3.321-8.267 2.215-15.218 7.411-19.687 14.668 9.403 17.409 3.288 39.323-13.954 49.278-5.771 3.331-12.084 4.915-18.313 4.915-0.632 0-1.264-0.028-1.894-0.062C41.271 123.777 52.257 127 64 127c31.814 0 58.104-23.586 62.378-54.223C124.154 64.602 118.837 57.265 110.937 52.703z" fill="white"></path><path d="M64 1c-8.339 0-16.291 1.635-23.575 4.577C34.448 11.591 30.749 19.872 30.749 29c0 18.01 14.396 32.711 32.285 33.226 4.938-8.026 12.624-13.774 21.766-16.224 9.482-2.54 19.386-1.237 27.887 3.671 6.348 3.666 11.181 8.957 14.295 15.043C126.983 64.476 127 64.24 127 64 127 29.206 98.795 1 64 1z" fill="white"></path><path d="M50.314 110.297c15.598-9.006 21.13-28.825 12.632-44.574C43.168 65.162 27.249 48.91 27.249 29c0-7.337 2.17-14.175 5.891-19.918C13.961 19.882 1 40.421 1 64c0 20.167 9.486 38.105 24.228 49.636C33.414 115.793 42.419 114.854 50.314 110.297z" fill="white"></path></g></svg></g></svg></g><g></g></svg></g></svg></g></svg></g></svg></g><defs><mask></mask></defs><mask><g id="SvgjsG1148"><svg viewBox="0 0 320 360" height="360" width="320"><g><svg></svg></g><g><svg viewBox="0 0 320 360" height="360" width="320"><g><path transform="translate(-74.99272,-51.79039) scale(4.65793,4.65793)" d="M20.6 59.9l0.8 1-0.4-1.3c-0.1-0.6-0.8 0.1-0.4 0.3M21.5 59.3c0.3 0.5 0.6 1 0.6 1.5 0 0.7 0.6 1 1.1 1.2-0.7-0.8-1.1-3-1.7-2.7M59.9 16.9c1.7 0 3.3-0.2 5.1 0.2 4.4 1.1 8.1 3.3 10.6 6.4l7 11.2c0.3 2.8 0.9 5.9 0.8 9.3 0.7 0 0.6-1 1.4-1.2-0.8 2-1.2 4.5-1.4 7.4-0.5-1.6 0-4 0.1-5.3-0.7 1.1-1.1 0.3-1.1-0.2 0.1-0.8-0.3-0.7-0.6-1-1.1-1-1.8-2.1-2.6-3.8 0.5-1.3 0.6-3.2-1-4.2-0.5-0.3-1.1-0.8-1.4-1.6-0.4-1.1-1.1-2.4-0.9-4.1 0.1-0.5-1.5 1.1-2.4 0.4-3.9-2.7-7.8-5.8-12.5-8.4-2.5 0-4.3-0.9-5.2-2-0.8-1-0.2-2.3 1-2.4 0.7 0 1.5-0.2 2.1 0.2 0.1-0.4 0.5-0.9 1-0.9M50 14.6l0.2 0.1c1 0.2 1.5 1.6 2.6 1.1 0 0.7 0.1 1.4-0.1 1.9-0.3 0.8-1.2 0.8-1.9 0.8-6.7-0.4-10.6 2.4-14.7 4.8-1.1 0.7-2.3 1.2-3.2 2.1-4.3 4-9 7.7-10.1 15.1l-0.9 8.2c-0.1 0.9-1.1 1.8-0.9 2.9l0.7 4.9c-0.7-0.7-1.1 0.2-0.9 0.6 0.1 0.3 0.5 1.3 1.1 0.4 0.8 1.5 1.6 4.4 2.7 5.7 3.4 4 7.8 7.6 11.4 11.2 0.9-0.2 1.6-0.2 1.8-0.8 0.3 0.6-0.3 1.2-0.8 1.3 1.6 1 3.4 1.9 5.8 2.1 3.1 0.2 6 0.7 8.7 1.4 1.4-0.4 2.8-0.6 4.3-0.7 0.5 0 0.8-0.8 1.4-1l0.1-1c0.6 0.9 0.5-0.3 0.1-0.9 0.7 0.6 0.9 1.1 1.2 1.5 0-0.3 0.8-1.4 0.8-0.1l0.2-1.3c0.3-0.2 0.4 1.1 0.7 0.2 0.3-0.9 0.9-0.2 1.5-0.5-0.2 0.4-0.1 1.2 0.6 0.7l0.8-0.7c0.5 1.2 1.3 0.7 1.7 0.5 4.4-2.8 8.8-6.1 13-9.4l-0.1 1.3 0.5-1.6c0.5 0.5 0.9 0.1 1.1-0.2 0.6-1 1.4-2 2.7-2.9-1.6 4.3-3.5 7.7-5.9 10.5l-1 1.2c0 0.7-0.2 1.6-1 1.7-0.4 0.1-1.2-0.2-1.8 0.4-0.3 0.4 0.7 1.2-0.1 0.6-0.7-0.5-1.4 0-2.2 0.2-0.6 0.2 0.4 0.8 0.6 1.2 0.2 0.4 0.4 0.8 0.3 1.3l-1.1-1.2c-1.3 0.7-2.1 2-3.2 3-0.5 0.4-0.3 1.1-0.3 1.7-0.7 0-1.5-0.2-1.9 0.2-0.3 0.4-0.2 1-0.2 1.6-1-0.1-1.1-1.6-2-1.3-0.9 0.2-1.9 0.3-2.7 0.8 0.6 1.2-1 0.5-0.8 0.7-1.5-0.9-2.8-1.6-4.4-1-3.4-1.1-7.6-0.6-10.7-0.2 0-0.5 0.1-1-0.1-1.1-0.2 0.5-0.8 0.3-0.7 0.3-1.9-1.3-3.8-2.1-5.8-3.2-1.8 0.2-3.5-0.7-4-1.2-1.4-1.3-3-0.6-4.3-0.9-2.8-0.7-3.8-3.6-4.1-5.6-0.2-1-1-1.4-1.3-1.3-1.3-4.2-3.3-8-4.9-11.9-0.4-1-0.3-2-0.3-3.1 0.5 0.2 1 0.1 0.9-0.6-0.5-3.3-1.7-5.8-3-8.2 0.7-3.4 0.8-7.4 2.4-10.4 1.4-2.7 4-4.1 5.8-6.4 0.6-0.8 0.6-1.9 1.2-2.6 2-2 4-4.1 6.2-5.9 1-0.8 2.2 0 3.7-0.3 0.5-1.8 2.5-3.4 4.4-2.9 0.8 0.2 2.4-1.9 2.9-2.1 0.8-0.3 0.4 0.8 0.4 1.5 1.9-1.5 4.5-2.3 6.9-3.2" fill="black" fill-rule="nonzero" stroke="none" stroke-width="1" stroke-linecap="butt" stroke-linejoin="miter" stroke-miterlimit="10" stroke-dasharray="" stroke-dashoffset="0" font-family="none" font-weight="none" font-size="none" text-anchor="none" style="mix-blend-mode: normal"></path></g><g transform="matrix(1,0,0,1,97.14233345304595,90)"><svg viewBox="0 0 125.7153330939081 180" height="180" width="125.7153330939081"><g><svg viewBox="0 0 125.7153330939081 180" height="180" width="125.7153330939081"><g><svg viewBox="0 0 192 274.9068005426516" height="180" width="125.7153330939081"><g transform="matrix(1,0,0,1,0,138.5532548078109)"><svg viewBox="0 0 192 136.35354573484068" height="136.35354573484068" width="192"><g id="SvgjsG1147"><svg viewBox="0 0 192 136.35354573484068" height="136.35354573484068" width="192" id="SvgjsSvg1146"><g><svg viewBox="0 0 192 136.35354573484068" height="136.35354573484068" width="192"><g transform="matrix(1,0,0,1,0,0)"><svg width="192" viewBox="2.15 -34 48.65 34.55" height="136.35354573484068" data-palette-color="url(#231ba12e-4001-459d-b3dc-b34efe24e202)"><path d="M5.6 0.5L5.6 0.5Q5 0.5 4.38 0.3 3.75 0.1 3.35-0.65 2.95-1.4 2.95-2.95L2.95-2.95Q2.95-3.95 3.13-5.53 3.3-7.1 3.5-8.6L3.5-8.6Q3.9-11.1 4.23-14.1 4.55-17.1 4.55-20.05L4.55-20.05Q4.55-21.1 4.5-22.25 4.45-23.4 4.3-24.45L4.3-24.45Q4-24.3 3.63-24.18 3.25-24.05 3-24.05L3-24.05Q2.5-24.05 2.33-24.58 2.15-25.1 2.15-25.8L2.15-25.8Q2.15-27.4 2.93-28.38 3.7-29.35 5.25-30.15L5.25-30.15Q7.3-31.3 9.63-31.83 11.95-32.35 14.05-32.35L14.05-32.35Q17.15-32.35 19.55-31.25 21.95-30.15 23.3-28.15 24.65-26.15 24.65-23.35L24.65-23.35Q24.65-20.45 23.28-18.2 21.9-15.95 19.78-14.53 17.65-13.1 15.45-12.65L15.45-12.65Q16.25-11.4 17.18-10.15 18.1-8.9 19.05-7.9L19.05-7.9Q21.9-4.95 24.85-4.95L24.85-4.95Q25.65-4.95 26.25-5.05L26.25-5.05Q26.55-5.1 26.78-4.83 27-4.55 27-3.75L27-3.75Q27-2.8 26.6-1.83 26.2-0.85 25.25-0.2 24.3 0.45 22.65 0.45L22.65 0.45Q20.7 0.45 18.93-0.85 17.15-2.15 15.65-4.17 14.15-6.2 12.98-8.45 11.8-10.7 11-12.6L11-12.6Q10.8-13.15 10.65-13.68 10.5-14.2 10.5-14.7L10.5-14.7Q10.5-15.55 11.05-16.1L11.05-16.1Q11.45-16.5 12.18-16.65 12.9-16.8 14.3-16.8L14.3-16.8Q16.95-16.8 18.6-18.25 20.25-19.7 20.25-22L20.25-22Q20.25-24.5 18.38-25.65 16.5-26.8 13.8-26.8L13.8-26.8Q11.6-26.8 9.2-26.1L9.2-26.1Q9.05-22.85 8.5-18.65L8.5-18.65Q8.2-16.15 7.98-13.7 7.75-11.25 7.75-9.25L7.75-9.25Q7.75-7.5 8.08-6.18 8.4-4.85 9.4-3.9L9.4-3.9Q10.1-3.2 10.1-2.4L10.1-2.4Q10.1-1.3 8.85-0.4 7.6 0.5 5.6 0.5ZM31.7 0.55L31.7 0.55Q31.15 0.55 30.65 0.23 30.15-0.1 30.25-0.65L30.25-0.65Q31-4.65 31.52-8.78 32.05-12.9 32.05-17.1L32.05-17.1Q32.05-20.8 31.8-23.8 31.55-26.8 30.2-29.55L30.2-29.55Q29.95-30.1 29.8-30.5 29.65-30.9 29.65-31.25L29.65-31.25Q29.65-32.2 30.75-33.1 31.85-34 33.1-34L33.1-34Q34.9-34 35.55-31.8 36.2-29.6 36.2-25.3L36.2-25.3Q36.2-20.15 35.6-16.32 35-12.5 34.55-10.5L34.55-10.5 34.75-10.4Q35.75-12.85 37.3-15.13 38.85-17.4 40.87-18.9 42.9-20.4 45.3-20.4L45.3-20.4Q47.65-20.4 48.92-19 50.2-17.6 50.2-15.65L50.2-15.65Q50.2-13.35 48.55-11.55 46.9-9.75 44.25-8.55L44.25-8.55Q44.9-6.85 46.1-5.88 47.3-4.9 49.15-4.9L49.15-4.9Q49.75-4.9 50.15-5L50.15-5Q50.8-5.15 50.8-3.75L50.8-3.75Q50.8-2.95 50.5-1.95 50.2-0.95 49.32-0.23 48.45 0.5 46.7 0.5L46.7 0.5Q44.35 0.5 42.87-0.88 41.4-2.25 40.57-4.28 39.75-6.3 39.3-8.3L39.3-8.3Q38.9-10.15 40.55-10.25L40.55-10.25Q42.3-10.45 43.5-11.3 44.7-12.15 44.7-13.55L44.7-13.55Q44.7-15.15 43.15-15.15L43.15-15.15Q42.15-15.15 41.12-14.43 40.1-13.7 39.22-12.7 38.35-11.7 37.8-10.75L37.8-10.75Q37.05-9.45 36.5-8.2 35.95-6.95 35.6-5.7L35.6-5.7 35.6-3.7Q35.6-1.85 34.52-0.65 33.45 0.55 31.7 0.55Z" opacity="1" transform="matrix(1,0,0,1,0,0)" fill="black" class="wordmark-text-0" id="SvgjsPath1145"></path></svg></g></svg></g></svg></g></svg></g><g transform="matrix(1,0,0,1,36.672,0)"><svg viewBox="0 0 118.656 118.656" height="118.656" width="118.656"><g><svg xmlns="http://www.w3.org/2000/svg" xmlns:xlink="http://www.w3.org/1999/xlink" version="1.1" x="0" y="0" viewBox="1 1 126 126" style="enable-background:new 0 0 128 128;" xml:space="preserve" height="118.656" width="118.656" class="icon-icon-0" data-fill-palette-color="accent" id="SvgjsSvg1144"><g fill="black"><path d="M110.937 52.703c-7.691-4.44-16.653-5.62-25.231-3.321-8.267 2.215-15.218 7.411-19.687 14.668 9.403 17.409 3.288 39.323-13.954 49.278-5.771 3.331-12.084 4.915-18.313 4.915-0.632 0-1.264-0.028-1.894-0.062C41.271 123.777 52.257 127 64 127c31.814 0 58.104-23.586 62.378-54.223C124.154 64.602 118.837 57.265 110.937 52.703z" fill="black"></path><path d="M64 1c-8.339 0-16.291 1.635-23.575 4.577C34.448 11.591 30.749 19.872 30.749 29c0 18.01 14.396 32.711 32.285 33.226 4.938-8.026 12.624-13.774 21.766-16.224 9.482-2.54 19.386-1.237 27.887 3.671 6.348 3.666 11.181 8.957 14.295 15.043C126.983 64.476 127 64.24 127 64 127 29.206 98.795 1 64 1z" fill="black"></path><path d="M50.314 110.297c15.598-9.006 21.13-28.825 12.632-44.574C43.168 65.162 27.249 48.91 27.249 29c0-7.337 2.17-14.175 5.891-19.918C13.961 19.882 1 40.421 1 64c0 20.167 9.486 38.105 24.228 49.636C33.414 115.793 42.419 114.854 50.314 110.297z" fill="black"></path></g></svg></g></svg></g><g></g></svg></g></svg></g></svg></g></svg></g><defs><mask></mask></defs></svg><rect width="320" height="360" fill="black" stroke="none" visibility="hidden"></rect></g></mask></svg><rect width="320" height="360" fill="black" stroke="none" visibility="hidden"></rect></g></mask><linearGradient x1="0" x2="1" y1="0.578" y2="0.595" id="dbf42e7a-9923-4278-ac02-173ce473147a"><stop stop-color="#6ee2f5" offset="0"></stop><stop stop-color="#6454f0" offset="1"></stop></linearGradient><rect width="320.000094" height="360" fill="url(#dbf42e7a-9923-4278-ac02-173ce473147a)" mask="url(#8bda92d2-d9e8-4dc1-b625-2362516ea79c)" data-fill-palette-color="accent"></rect><mask id="be12c51b-015b-4344-938a-7b468ad4c7eb"><g id="SvgjsG1170"><svg viewBox="0 0 320 360" height="360" width="320"><g><svg></svg></g><g><svg viewBox="0 0 320 360" height="360" width="320"><g><path transform="translate(-74.99272,-51.79039) scale(4.65793,4.65793)" d="M20.6 59.9l0.8 1-0.4-1.3c-0.1-0.6-0.8 0.1-0.4 0.3M21.5 59.3c0.3 0.5 0.6 1 0.6 1.5 0 0.7 0.6 1 1.1 1.2-0.7-0.8-1.1-3-1.7-2.7M59.9 16.9c1.7 0 3.3-0.2 5.1 0.2 4.4 1.1 8.1 3.3 10.6 6.4l7 11.2c0.3 2.8 0.9 5.9 0.8 9.3 0.7 0 0.6-1 1.4-1.2-0.8 2-1.2 4.5-1.4 7.4-0.5-1.6 0-4 0.1-5.3-0.7 1.1-1.1 0.3-1.1-0.2 0.1-0.8-0.3-0.7-0.6-1-1.1-1-1.8-2.1-2.6-3.8 0.5-1.3 0.6-3.2-1-4.2-0.5-0.3-1.1-0.8-1.4-1.6-0.4-1.1-1.1-2.4-0.9-4.1 0.1-0.5-1.5 1.1-2.4 0.4-3.9-2.7-7.8-5.8-12.5-8.4-2.5 0-4.3-0.9-5.2-2-0.8-1-0.2-2.3 1-2.4 0.7 0 1.5-0.2 2.1 0.2 0.1-0.4 0.5-0.9 1-0.9M50 14.6l0.2 0.1c1 0.2 1.5 1.6 2.6 1.1 0 0.7 0.1 1.4-0.1 1.9-0.3 0.8-1.2 0.8-1.9 0.8-6.7-0.4-10.6 2.4-14.7 4.8-1.1 0.7-2.3 1.2-3.2 2.1-4.3 4-9 7.7-10.1 15.1l-0.9 8.2c-0.1 0.9-1.1 1.8-0.9 2.9l0.7 4.9c-0.7-0.7-1.1 0.2-0.9 0.6 0.1 0.3 0.5 1.3 1.1 0.4 0.8 1.5 1.6 4.4 2.7 5.7 3.4 4 7.8 7.6 11.4 11.2 0.9-0.2 1.6-0.2 1.8-0.8 0.3 0.6-0.3 1.2-0.8 1.3 1.6 1 3.4 1.9 5.8 2.1 3.1 0.2 6 0.7 8.7 1.4 1.4-0.4 2.8-0.6 4.3-0.7 0.5 0 0.8-0.8 1.4-1l0.1-1c0.6 0.9 0.5-0.3 0.1-0.9 0.7 0.6 0.9 1.1 1.2 1.5 0-0.3 0.8-1.4 0.8-0.1l0.2-1.3c0.3-0.2 0.4 1.1 0.7 0.2 0.3-0.9 0.9-0.2 1.5-0.5-0.2 0.4-0.1 1.2 0.6 0.7l0.8-0.7c0.5 1.2 1.3 0.7 1.7 0.5 4.4-2.8 8.8-6.1 13-9.4l-0.1 1.3 0.5-1.6c0.5 0.5 0.9 0.1 1.1-0.2 0.6-1 1.4-2 2.7-2.9-1.6 4.3-3.5 7.7-5.9 10.5l-1 1.2c0 0.7-0.2 1.6-1 1.7-0.4 0.1-1.2-0.2-1.8 0.4-0.3 0.4 0.7 1.2-0.1 0.6-0.7-0.5-1.4 0-2.2 0.2-0.6 0.2 0.4 0.8 0.6 1.2 0.2 0.4 0.4 0.8 0.3 1.3l-1.1-1.2c-1.3 0.7-2.1 2-3.2 3-0.5 0.4-0.3 1.1-0.3 1.7-0.7 0-1.5-0.2-1.9 0.2-0.3 0.4-0.2 1-0.2 1.6-1-0.1-1.1-1.6-2-1.3-0.9 0.2-1.9 0.3-2.7 0.8 0.6 1.2-1 0.5-0.8 0.7-1.5-0.9-2.8-1.6-4.4-1-3.4-1.1-7.6-0.6-10.7-0.2 0-0.5 0.1-1-0.1-1.1-0.2 0.5-0.8 0.3-0.7 0.3-1.9-1.3-3.8-2.1-5.8-3.2-1.8 0.2-3.5-0.7-4-1.2-1.4-1.3-3-0.6-4.3-0.9-2.8-0.7-3.8-3.6-4.1-5.6-0.2-1-1-1.4-1.3-1.3-1.3-4.2-3.3-8-4.9-11.9-0.4-1-0.3-2-0.3-3.1 0.5 0.2 1 0.1 0.9-0.6-0.5-3.3-1.7-5.8-3-8.2 0.7-3.4 0.8-7.4 2.4-10.4 1.4-2.7 4-4.1 5.8-6.4 0.6-0.8 0.6-1.9 1.2-2.6 2-2 4-4.1 6.2-5.9 1-0.8 2.2 0 3.7-0.3 0.5-1.8 2.5-3.4 4.4-2.9 0.8 0.2 2.4-1.9 2.9-2.1 0.8-0.3 0.4 0.8 0.4 1.5 1.9-1.5 4.5-2.3 6.9-3.2" fill="white" fill-rule="nonzero" stroke="none" stroke-width="1" stroke-linecap="butt" stroke-linejoin="miter" stroke-miterlimit="10" stroke-dasharray="" stroke-dashoffset="0" font-family="none" font-weight="none" font-size="none" text-anchor="none" style="mix-blend-mode: normal"></path></g><g transform="matrix(1,0,0,1,97.14233345304595,90)"><svg viewBox="0 0 125.7153330939081 180" height="180" width="125.7153330939081"><g><svg viewBox="0 0 125.7153330939081 180" height="180" width="125.7153330939081"><g><svg viewBox="0 0 192 274.9068005426516" height="180" width="125.7153330939081"><g transform="matrix(1,0,0,1,0,138.5532548078109)"><svg viewBox="0 0 192 136.35354573484068" height="136.35354573484068" width="192"><g id="SvgjsG1169"><svg viewBox="0 0 192 136.35354573484068" height="136.35354573484068" width="192" id="SvgjsSvg1168"><g><svg viewBox="0 0 192 136.35354573484068" height="136.35354573484068" width="192"><g transform="matrix(1,0,0,1,0,0)"><svg width="192" viewBox="2.15 -34 48.65 34.55" height="136.35354573484068" data-palette-color="url(#231ba12e-4001-459d-b3dc-b34efe24e202)"></svg></g></svg></g></svg></g></svg></g><g transform="matrix(1,0,0,1,36.672,0)"><svg viewBox="0 0 118.656 118.656" height="118.656" width="118.656"><g><svg xmlns="http://www.w3.org/2000/svg" xmlns:xlink="http://www.w3.org/1999/xlink" version="1.1" x="0" y="0" viewBox="1 1 126 126" style="enable-background:new 0 0 128 128;" xml:space="preserve" height="118.656" width="118.656" class="icon-icon-0" data-fill-palette-color="accent" id="SvgjsSvg1167"></svg></g></svg></g><g></g></svg></g></svg></g></svg></g></svg></g><defs><mask></mask></defs><mask><g id="SvgjsG1166"><svg viewBox="0 0 320 360" height="360" width="320"><g><svg></svg></g><g><svg viewBox="0 0 320 360" height="360" width="320"><g><path transform="translate(-74.99272,-51.79039) scale(4.65793,4.65793)" d="M20.6 59.9l0.8 1-0.4-1.3c-0.1-0.6-0.8 0.1-0.4 0.3M21.5 59.3c0.3 0.5 0.6 1 0.6 1.5 0 0.7 0.6 1 1.1 1.2-0.7-0.8-1.1-3-1.7-2.7M59.9 16.9c1.7 0 3.3-0.2 5.1 0.2 4.4 1.1 8.1 3.3 10.6 6.4l7 11.2c0.3 2.8 0.9 5.9 0.8 9.3 0.7 0 0.6-1 1.4-1.2-0.8 2-1.2 4.5-1.4 7.4-0.5-1.6 0-4 0.1-5.3-0.7 1.1-1.1 0.3-1.1-0.2 0.1-0.8-0.3-0.7-0.6-1-1.1-1-1.8-2.1-2.6-3.8 0.5-1.3 0.6-3.2-1-4.2-0.5-0.3-1.1-0.8-1.4-1.6-0.4-1.1-1.1-2.4-0.9-4.1 0.1-0.5-1.5 1.1-2.4 0.4-3.9-2.7-7.8-5.8-12.5-8.4-2.5 0-4.3-0.9-5.2-2-0.8-1-0.2-2.3 1-2.4 0.7 0 1.5-0.2 2.1 0.2 0.1-0.4 0.5-0.9 1-0.9M50 14.6l0.2 0.1c1 0.2 1.5 1.6 2.6 1.1 0 0.7 0.1 1.4-0.1 1.9-0.3 0.8-1.2 0.8-1.9 0.8-6.7-0.4-10.6 2.4-14.7 4.8-1.1 0.7-2.3 1.2-3.2 2.1-4.3 4-9 7.7-10.1 15.1l-0.9 8.2c-0.1 0.9-1.1 1.8-0.9 2.9l0.7 4.9c-0.7-0.7-1.1 0.2-0.9 0.6 0.1 0.3 0.5 1.3 1.1 0.4 0.8 1.5 1.6 4.4 2.7 5.7 3.4 4 7.8 7.6 11.4 11.2 0.9-0.2 1.6-0.2 1.8-0.8 0.3 0.6-0.3 1.2-0.8 1.3 1.6 1 3.4 1.9 5.8 2.1 3.1 0.2 6 0.7 8.7 1.4 1.4-0.4 2.8-0.6 4.3-0.7 0.5 0 0.8-0.8 1.4-1l0.1-1c0.6 0.9 0.5-0.3 0.1-0.9 0.7 0.6 0.9 1.1 1.2 1.5 0-0.3 0.8-1.4 0.8-0.1l0.2-1.3c0.3-0.2 0.4 1.1 0.7 0.2 0.3-0.9 0.9-0.2 1.5-0.5-0.2 0.4-0.1 1.2 0.6 0.7l0.8-0.7c0.5 1.2 1.3 0.7 1.7 0.5 4.4-2.8 8.8-6.1 13-9.4l-0.1 1.3 0.5-1.6c0.5 0.5 0.9 0.1 1.1-0.2 0.6-1 1.4-2 2.7-2.9-1.6 4.3-3.5 7.7-5.9 10.5l-1 1.2c0 0.7-0.2 1.6-1 1.7-0.4 0.1-1.2-0.2-1.8 0.4-0.3 0.4 0.7 1.2-0.1 0.6-0.7-0.5-1.4 0-2.2 0.2-0.6 0.2 0.4 0.8 0.6 1.2 0.2 0.4 0.4 0.8 0.3 1.3l-1.1-1.2c-1.3 0.7-2.1 2-3.2 3-0.5 0.4-0.3 1.1-0.3 1.7-0.7 0-1.5-0.2-1.9 0.2-0.3 0.4-0.2 1-0.2 1.6-1-0.1-1.1-1.6-2-1.3-0.9 0.2-1.9 0.3-2.7 0.8 0.6 1.2-1 0.5-0.8 0.7-1.5-0.9-2.8-1.6-4.4-1-3.4-1.1-7.6-0.6-10.7-0.2 0-0.5 0.1-1-0.1-1.1-0.2 0.5-0.8 0.3-0.7 0.3-1.9-1.3-3.8-2.1-5.8-3.2-1.8 0.2-3.5-0.7-4-1.2-1.4-1.3-3-0.6-4.3-0.9-2.8-0.7-3.8-3.6-4.1-5.6-0.2-1-1-1.4-1.3-1.3-1.3-4.2-3.3-8-4.9-11.9-0.4-1-0.3-2-0.3-3.1 0.5 0.2 1 0.1 0.9-0.6-0.5-3.3-1.7-5.8-3-8.2 0.7-3.4 0.8-7.4 2.4-10.4 1.4-2.7 4-4.1 5.8-6.4 0.6-0.8 0.6-1.9 1.2-2.6 2-2 4-4.1 6.2-5.9 1-0.8 2.2 0 3.7-0.3 0.5-1.8 2.5-3.4 4.4-2.9 0.8 0.2 2.4-1.9 2.9-2.1 0.8-0.3 0.4 0.8 0.4 1.5 1.9-1.5 4.5-2.3 6.9-3.2" fill="black" fill-rule="nonzero" stroke="none" stroke-width="1" stroke-linecap="butt" stroke-linejoin="miter" stroke-miterlimit="10" stroke-dasharray="" stroke-dashoffset="0" font-family="none" font-weight="none" font-size="none" text-anchor="none" style="mix-blend-mode: normal"></path></g><g transform="matrix(1,0,0,1,97.14233345304595,90)"><svg viewBox="0 0 125.7153330939081 180" height="180" width="125.7153330939081"><g><svg viewBox="0 0 125.7153330939081 180" height="180" width="125.7153330939081"><g><svg viewBox="0 0 192 274.9068005426516" height="180" width="125.7153330939081"><g transform="matrix(1,0,0,1,0,138.5532548078109)"><svg viewBox="0 0 192 136.35354573484068" height="136.35354573484068" width="192"><g id="SvgjsG1165"><svg viewBox="0 0 192 136.35354573484068" height="136.35354573484068" width="192" id="SvgjsSvg1164"><g><svg viewBox="0 0 192 136.35354573484068" height="136.35354573484068" width="192"><g transform="matrix(1,0,0,1,0,0)"><svg width="192" viewBox="2.15 -34 48.65 34.55" height="136.35354573484068" data-palette-color="url(#231ba12e-4001-459d-b3dc-b34efe24e202)"><path d="M5.6 0.5L5.6 0.5Q5 0.5 4.38 0.3 3.75 0.1 3.35-0.65 2.95-1.4 2.95-2.95L2.95-2.95Q2.95-3.95 3.13-5.53 3.3-7.1 3.5-8.6L3.5-8.6Q3.9-11.1 4.23-14.1 4.55-17.1 4.55-20.05L4.55-20.05Q4.55-21.1 4.5-22.25 4.45-23.4 4.3-24.45L4.3-24.45Q4-24.3 3.63-24.18 3.25-24.05 3-24.05L3-24.05Q2.5-24.05 2.33-24.58 2.15-25.1 2.15-25.8L2.15-25.8Q2.15-27.4 2.93-28.38 3.7-29.35 5.25-30.15L5.25-30.15Q7.3-31.3 9.63-31.83 11.95-32.35 14.05-32.35L14.05-32.35Q17.15-32.35 19.55-31.25 21.95-30.15 23.3-28.15 24.65-26.15 24.65-23.35L24.65-23.35Q24.65-20.45 23.28-18.2 21.9-15.95 19.78-14.53 17.65-13.1 15.45-12.65L15.45-12.65Q16.25-11.4 17.18-10.15 18.1-8.9 19.05-7.9L19.05-7.9Q21.9-4.95 24.85-4.95L24.85-4.95Q25.65-4.95 26.25-5.05L26.25-5.05Q26.55-5.1 26.78-4.83 27-4.55 27-3.75L27-3.75Q27-2.8 26.6-1.83 26.2-0.85 25.25-0.2 24.3 0.45 22.65 0.45L22.65 0.45Q20.7 0.45 18.93-0.85 17.15-2.15 15.65-4.17 14.15-6.2 12.98-8.45 11.8-10.7 11-12.6L11-12.6Q10.8-13.15 10.65-13.68 10.5-14.2 10.5-14.7L10.5-14.7Q10.5-15.55 11.05-16.1L11.05-16.1Q11.45-16.5 12.18-16.65 12.9-16.8 14.3-16.8L14.3-16.8Q16.95-16.8 18.6-18.25 20.25-19.7 20.25-22L20.25-22Q20.25-24.5 18.38-25.65 16.5-26.8 13.8-26.8L13.8-26.8Q11.6-26.8 9.2-26.1L9.2-26.1Q9.05-22.85 8.5-18.65L8.5-18.65Q8.2-16.15 7.98-13.7 7.75-11.25 7.75-9.25L7.75-9.25Q7.75-7.5 8.08-6.18 8.4-4.85 9.4-3.9L9.4-3.9Q10.1-3.2 10.1-2.4L10.1-2.4Q10.1-1.3 8.85-0.4 7.6 0.5 5.6 0.5ZM31.7 0.55L31.7 0.55Q31.15 0.55 30.65 0.23 30.15-0.1 30.25-0.65L30.25-0.65Q31-4.65 31.52-8.78 32.05-12.9 32.05-17.1L32.05-17.1Q32.05-20.8 31.8-23.8 31.55-26.8 30.2-29.55L30.2-29.55Q29.95-30.1 29.8-30.5 29.65-30.9 29.65-31.25L29.65-31.25Q29.65-32.2 30.75-33.1 31.85-34 33.1-34L33.1-34Q34.9-34 35.55-31.8 36.2-29.6 36.2-25.3L36.2-25.3Q36.2-20.15 35.6-16.32 35-12.5 34.55-10.5L34.55-10.5 34.75-10.4Q35.75-12.85 37.3-15.13 38.85-17.4 40.87-18.9 42.9-20.4 45.3-20.4L45.3-20.4Q47.65-20.4 48.92-19 50.2-17.6 50.2-15.65L50.2-15.65Q50.2-13.35 48.55-11.55 46.9-9.75 44.25-8.55L44.25-8.55Q44.9-6.85 46.1-5.88 47.3-4.9 49.15-4.9L49.15-4.9Q49.75-4.9 50.15-5L50.15-5Q50.8-5.15 50.8-3.75L50.8-3.75Q50.8-2.95 50.5-1.95 50.2-0.95 49.32-0.23 48.45 0.5 46.7 0.5L46.7 0.5Q44.35 0.5 42.87-0.88 41.4-2.25 40.57-4.28 39.75-6.3 39.3-8.3L39.3-8.3Q38.9-10.15 40.55-10.25L40.55-10.25Q42.3-10.45 43.5-11.3 44.7-12.15 44.7-13.55L44.7-13.55Q44.7-15.15 43.15-15.15L43.15-15.15Q42.15-15.15 41.12-14.43 40.1-13.7 39.22-12.7 38.35-11.7 37.8-10.75L37.8-10.75Q37.05-9.45 36.5-8.2 35.95-6.95 35.6-5.7L35.6-5.7 35.6-3.7Q35.6-1.85 34.52-0.65 33.45 0.55 31.7 0.55Z" opacity="1" transform="matrix(1,0,0,1,0,0)" fill="black" class="wordmark-text-0" id="SvgjsPath1163"></path></svg></g></svg></g></svg></g></svg></g><g transform="matrix(1,0,0,1,36.672,0)"><svg viewBox="0 0 118.656 118.656" height="118.656" width="118.656"><g><svg xmlns="http://www.w3.org/2000/svg" xmlns:xlink="http://www.w3.org/1999/xlink" version="1.1" x="0" y="0" viewBox="1 1 126 126" style="enable-background:new 0 0 128 128;" xml:space="preserve" height="118.656" width="118.656" class="icon-icon-0" data-fill-palette-color="accent" id="SvgjsSvg1162"><g fill="black"><path d="M110.937 52.703c-7.691-4.44-16.653-5.62-25.231-3.321-8.267 2.215-15.218 7.411-19.687 14.668 9.403 17.409 3.288 39.323-13.954 49.278-5.771 3.331-12.084 4.915-18.313 4.915-0.632 0-1.264-0.028-1.894-0.062C41.271 123.777 52.257 127 64 127c31.814 0 58.104-23.586 62.378-54.223C124.154 64.602 118.837 57.265 110.937 52.703z" fill="black"></path><path d="M64 1c-8.339 0-16.291 1.635-23.575 4.577C34.448 11.591 30.749 19.872 30.749 29c0 18.01 14.396 32.711 32.285 33.226 4.938-8.026 12.624-13.774 21.766-16.224 9.482-2.54 19.386-1.237 27.887 3.671 6.348 3.666 11.181 8.957 14.295 15.043C126.983 64.476 127 64.24 127 64 127 29.206 98.795 1 64 1z" fill="black"></path><path d="M50.314 110.297c15.598-9.006 21.13-28.825 12.632-44.574C43.168 65.162 27.249 48.91 27.249 29c0-7.337 2.17-14.175 5.891-19.918C13.961 19.882 1 40.421 1 64c0 20.167 9.486 38.105 24.228 49.636C33.414 115.793 42.419 114.854 50.314 110.297z" fill="black"></path></g></svg></g></svg></g><g></g></svg></g></svg></g></svg></g></svg></g><defs><mask></mask></defs></svg><rect width="320" height="360" fill="black" stroke="none" visibility="hidden"></rect></g></mask><mask><g id="SvgjsG1161"><svg viewBox="0 0 320 360" height="360" width="320"><g><svg></svg></g><g><svg viewBox="0 0 320 360" height="360" width="320"><g><path transform="translate(-74.99272,-51.79039) scale(4.65793,4.65793)" d="M20.6 59.9l0.8 1-0.4-1.3c-0.1-0.6-0.8 0.1-0.4 0.3M21.5 59.3c0.3 0.5 0.6 1 0.6 1.5 0 0.7 0.6 1 1.1 1.2-0.7-0.8-1.1-3-1.7-2.7M59.9 16.9c1.7 0 3.3-0.2 5.1 0.2 4.4 1.1 8.1 3.3 10.6 6.4l7 11.2c0.3 2.8 0.9 5.9 0.8 9.3 0.7 0 0.6-1 1.4-1.2-0.8 2-1.2 4.5-1.4 7.4-0.5-1.6 0-4 0.1-5.3-0.7 1.1-1.1 0.3-1.1-0.2 0.1-0.8-0.3-0.7-0.6-1-1.1-1-1.8-2.1-2.6-3.8 0.5-1.3 0.6-3.2-1-4.2-0.5-0.3-1.1-0.8-1.4-1.6-0.4-1.1-1.1-2.4-0.9-4.1 0.1-0.5-1.5 1.1-2.4 0.4-3.9-2.7-7.8-5.8-12.5-8.4-2.5 0-4.3-0.9-5.2-2-0.8-1-0.2-2.3 1-2.4 0.7 0 1.5-0.2 2.1 0.2 0.1-0.4 0.5-0.9 1-0.9M50 14.6l0.2 0.1c1 0.2 1.5 1.6 2.6 1.1 0 0.7 0.1 1.4-0.1 1.9-0.3 0.8-1.2 0.8-1.9 0.8-6.7-0.4-10.6 2.4-14.7 4.8-1.1 0.7-2.3 1.2-3.2 2.1-4.3 4-9 7.7-10.1 15.1l-0.9 8.2c-0.1 0.9-1.1 1.8-0.9 2.9l0.7 4.9c-0.7-0.7-1.1 0.2-0.9 0.6 0.1 0.3 0.5 1.3 1.1 0.4 0.8 1.5 1.6 4.4 2.7 5.7 3.4 4 7.8 7.6 11.4 11.2 0.9-0.2 1.6-0.2 1.8-0.8 0.3 0.6-0.3 1.2-0.8 1.3 1.6 1 3.4 1.9 5.8 2.1 3.1 0.2 6 0.7 8.7 1.4 1.4-0.4 2.8-0.6 4.3-0.7 0.5 0 0.8-0.8 1.4-1l0.1-1c0.6 0.9 0.5-0.3 0.1-0.9 0.7 0.6 0.9 1.1 1.2 1.5 0-0.3 0.8-1.4 0.8-0.1l0.2-1.3c0.3-0.2 0.4 1.1 0.7 0.2 0.3-0.9 0.9-0.2 1.5-0.5-0.2 0.4-0.1 1.2 0.6 0.7l0.8-0.7c0.5 1.2 1.3 0.7 1.7 0.5 4.4-2.8 8.8-6.1 13-9.4l-0.1 1.3 0.5-1.6c0.5 0.5 0.9 0.1 1.1-0.2 0.6-1 1.4-2 2.7-2.9-1.6 4.3-3.5 7.7-5.9 10.5l-1 1.2c0 0.7-0.2 1.6-1 1.7-0.4 0.1-1.2-0.2-1.8 0.4-0.3 0.4 0.7 1.2-0.1 0.6-0.7-0.5-1.4 0-2.2 0.2-0.6 0.2 0.4 0.8 0.6 1.2 0.2 0.4 0.4 0.8 0.3 1.3l-1.1-1.2c-1.3 0.7-2.1 2-3.2 3-0.5 0.4-0.3 1.1-0.3 1.7-0.7 0-1.5-0.2-1.9 0.2-0.3 0.4-0.2 1-0.2 1.6-1-0.1-1.1-1.6-2-1.3-0.9 0.2-1.9 0.3-2.7 0.8 0.6 1.2-1 0.5-0.8 0.7-1.5-0.9-2.8-1.6-4.4-1-3.4-1.1-7.6-0.6-10.7-0.2 0-0.5 0.1-1-0.1-1.1-0.2 0.5-0.8 0.3-0.7 0.3-1.9-1.3-3.8-2.1-5.8-3.2-1.8 0.2-3.5-0.7-4-1.2-1.4-1.3-3-0.6-4.3-0.9-2.8-0.7-3.8-3.6-4.1-5.6-0.2-1-1-1.4-1.3-1.3-1.3-4.2-3.3-8-4.9-11.9-0.4-1-0.3-2-0.3-3.1 0.5 0.2 1 0.1 0.9-0.6-0.5-3.3-1.7-5.8-3-8.2 0.7-3.4 0.8-7.4 2.4-10.4 1.4-2.7 4-4.1 5.8-6.4 0.6-0.8 0.6-1.9 1.2-2.6 2-2 4-4.1 6.2-5.9 1-0.8 2.2 0 3.7-0.3 0.5-1.8 2.5-3.4 4.4-2.9 0.8 0.2 2.4-1.9 2.9-2.1 0.8-0.3 0.4 0.8 0.4 1.5 1.9-1.5 4.5-2.3 6.9-3.2" fill="black" fill-rule="nonzero" stroke="none" stroke-width="1" stroke-linecap="butt" stroke-linejoin="miter" stroke-miterlimit="10" stroke-dasharray="" stroke-dashoffset="0" font-family="none" font-weight="none" font-size="none" text-anchor="none" style="mix-blend-mode: normal"></path></g><g transform="matrix(1,0,0,1,97.14233345304595,90)"><svg viewBox="0 0 125.7153330939081 180" height="180" width="125.7153330939081"><g><svg viewBox="0 0 125.7153330939081 180" height="180" width="125.7153330939081"><g><svg viewBox="0 0 192 274.9068005426516" height="180" width="125.7153330939081"><g transform="matrix(1,0,0,1,0,138.5532548078109)"><svg viewBox="0 0 192 136.35354573484068" height="136.35354573484068" width="192"><g id="SvgjsG1160"><svg viewBox="0 0 192 136.35354573484068" height="136.35354573484068" width="192" id="SvgjsSvg1159"><g><svg viewBox="0 0 192 136.35354573484068" height="136.35354573484068" width="192"><g transform="matrix(1,0,0,1,0,0)"><svg width="192" viewBox="2.15 -34 48.65 34.55" height="136.35354573484068" data-palette-color="url(#231ba12e-4001-459d-b3dc-b34efe24e202)"></svg></g></svg></g></svg></g></svg></g><g transform="matrix(1,0,0,1,36.672,0)"><svg viewBox="0 0 118.656 118.656" height="118.656" width="118.656"><g><svg xmlns="http://www.w3.org/2000/svg" xmlns:xlink="http://www.w3.org/1999/xlink" version="1.1" x="0" y="0" viewBox="1 1 126 126" style="enable-background:new 0 0 128 128;" xml:space="preserve" height="118.656" width="118.656" class="icon-icon-0" data-fill-palette-color="accent" id="SvgjsSvg1158"><g fill="black"><path d="M110.937 52.703c-7.691-4.44-16.653-5.62-25.231-3.321-8.267 2.215-15.218 7.411-19.687 14.668 9.403 17.409 3.288 39.323-13.954 49.278-5.771 3.331-12.084 4.915-18.313 4.915-0.632 0-1.264-0.028-1.894-0.062C41.271 123.777 52.257 127 64 127c31.814 0 58.104-23.586 62.378-54.223C124.154 64.602 118.837 57.265 110.937 52.703z" fill="black"></path><path d="M64 1c-8.339 0-16.291 1.635-23.575 4.577C34.448 11.591 30.749 19.872 30.749 29c0 18.01 14.396 32.711 32.285 33.226 4.938-8.026 12.624-13.774 21.766-16.224 9.482-2.54 19.386-1.237 27.887 3.671 6.348 3.666 11.181 8.957 14.295 15.043C126.983 64.476 127 64.24 127 64 127 29.206 98.795 1 64 1z" fill="black"></path><path d="M50.314 110.297c15.598-9.006 21.13-28.825 12.632-44.574C43.168 65.162 27.249 48.91 27.249 29c0-7.337 2.17-14.175 5.891-19.918C13.961 19.882 1 40.421 1 64c0 20.167 9.486 38.105 24.228 49.636C33.414 115.793 42.419 114.854 50.314 110.297z" fill="black"></path></g></svg></g></svg></g><g></g></svg></g></svg></g></svg></g></svg></g><defs><mask></mask></defs><mask><g id="SvgjsG1157"><svg viewBox="0 0 320 360" height="360" width="320"><g><svg></svg></g><g><svg viewBox="0 0 320 360" height="360" width="320"><g><path transform="translate(-74.99272,-51.79039) scale(4.65793,4.65793)" d="M20.6 59.9l0.8 1-0.4-1.3c-0.1-0.6-0.8 0.1-0.4 0.3M21.5 59.3c0.3 0.5 0.6 1 0.6 1.5 0 0.7 0.6 1 1.1 1.2-0.7-0.8-1.1-3-1.7-2.7M59.9 16.9c1.7 0 3.3-0.2 5.1 0.2 4.4 1.1 8.1 3.3 10.6 6.4l7 11.2c0.3 2.8 0.9 5.9 0.8 9.3 0.7 0 0.6-1 1.4-1.2-0.8 2-1.2 4.5-1.4 7.4-0.5-1.6 0-4 0.1-5.3-0.7 1.1-1.1 0.3-1.1-0.2 0.1-0.8-0.3-0.7-0.6-1-1.1-1-1.8-2.1-2.6-3.8 0.5-1.3 0.6-3.2-1-4.2-0.5-0.3-1.1-0.8-1.4-1.6-0.4-1.1-1.1-2.4-0.9-4.1 0.1-0.5-1.5 1.1-2.4 0.4-3.9-2.7-7.8-5.8-12.5-8.4-2.5 0-4.3-0.9-5.2-2-0.8-1-0.2-2.3 1-2.4 0.7 0 1.5-0.2 2.1 0.2 0.1-0.4 0.5-0.9 1-0.9M50 14.6l0.2 0.1c1 0.2 1.5 1.6 2.6 1.1 0 0.7 0.1 1.4-0.1 1.9-0.3 0.8-1.2 0.8-1.9 0.8-6.7-0.4-10.6 2.4-14.7 4.8-1.1 0.7-2.3 1.2-3.2 2.1-4.3 4-9 7.7-10.1 15.1l-0.9 8.2c-0.1 0.9-1.1 1.8-0.9 2.9l0.7 4.9c-0.7-0.7-1.1 0.2-0.9 0.6 0.1 0.3 0.5 1.3 1.1 0.4 0.8 1.5 1.6 4.4 2.7 5.7 3.4 4 7.8 7.6 11.4 11.2 0.9-0.2 1.6-0.2 1.8-0.8 0.3 0.6-0.3 1.2-0.8 1.3 1.6 1 3.4 1.9 5.8 2.1 3.1 0.2 6 0.7 8.7 1.4 1.4-0.4 2.8-0.6 4.3-0.7 0.5 0 0.8-0.8 1.4-1l0.1-1c0.6 0.9 0.5-0.3 0.1-0.9 0.7 0.6 0.9 1.1 1.2 1.5 0-0.3 0.8-1.4 0.8-0.1l0.2-1.3c0.3-0.2 0.4 1.1 0.7 0.2 0.3-0.9 0.9-0.2 1.5-0.5-0.2 0.4-0.1 1.2 0.6 0.7l0.8-0.7c0.5 1.2 1.3 0.7 1.7 0.5 4.4-2.8 8.8-6.1 13-9.4l-0.1 1.3 0.5-1.6c0.5 0.5 0.9 0.1 1.1-0.2 0.6-1 1.4-2 2.7-2.9-1.6 4.3-3.5 7.7-5.9 10.5l-1 1.2c0 0.7-0.2 1.6-1 1.7-0.4 0.1-1.2-0.2-1.8 0.4-0.3 0.4 0.7 1.2-0.1 0.6-0.7-0.5-1.4 0-2.2 0.2-0.6 0.2 0.4 0.8 0.6 1.2 0.2 0.4 0.4 0.8 0.3 1.3l-1.1-1.2c-1.3 0.7-2.1 2-3.2 3-0.5 0.4-0.3 1.1-0.3 1.7-0.7 0-1.5-0.2-1.9 0.2-0.3 0.4-0.2 1-0.2 1.6-1-0.1-1.1-1.6-2-1.3-0.9 0.2-1.9 0.3-2.7 0.8 0.6 1.2-1 0.5-0.8 0.7-1.5-0.9-2.8-1.6-4.4-1-3.4-1.1-7.6-0.6-10.7-0.2 0-0.5 0.1-1-0.1-1.1-0.2 0.5-0.8 0.3-0.7 0.3-1.9-1.3-3.8-2.1-5.8-3.2-1.8 0.2-3.5-0.7-4-1.2-1.4-1.3-3-0.6-4.3-0.9-2.8-0.7-3.8-3.6-4.1-5.6-0.2-1-1-1.4-1.3-1.3-1.3-4.2-3.3-8-4.9-11.9-0.4-1-0.3-2-0.3-3.1 0.5 0.2 1 0.1 0.9-0.6-0.5-3.3-1.7-5.8-3-8.2 0.7-3.4 0.8-7.4 2.4-10.4 1.4-2.7 4-4.1 5.8-6.4 0.6-0.8 0.6-1.9 1.2-2.6 2-2 4-4.1 6.2-5.9 1-0.8 2.2 0 3.7-0.3 0.5-1.8 2.5-3.4 4.4-2.9 0.8 0.2 2.4-1.9 2.9-2.1 0.8-0.3 0.4 0.8 0.4 1.5 1.9-1.5 4.5-2.3 6.9-3.2" fill="black" fill-rule="nonzero" stroke="none" stroke-width="1" stroke-linecap="butt" stroke-linejoin="miter" stroke-miterlimit="10" stroke-dasharray="" stroke-dashoffset="0" font-family="none" font-weight="none" font-size="none" text-anchor="none" style="mix-blend-mode: normal"></path></g><g transform="matrix(1,0,0,1,97.14233345304595,90)"><svg viewBox="0 0 125.7153330939081 180" height="180" width="125.7153330939081"><g><svg viewBox="0 0 125.7153330939081 180" height="180" width="125.7153330939081"><g><svg viewBox="0 0 192 274.9068005426516" height="180" width="125.7153330939081"><g transform="matrix(1,0,0,1,0,138.5532548078109)"><svg viewBox="0 0 192 136.35354573484068" height="136.35354573484068" width="192"><g id="SvgjsG1156"><svg viewBox="0 0 192 136.35354573484068" height="136.35354573484068" width="192" id="SvgjsSvg1155"><g><svg viewBox="0 0 192 136.35354573484068" height="136.35354573484068" width="192"><g transform="matrix(1,0,0,1,0,0)"><svg width="192" viewBox="2.15 -34 48.65 34.55" height="136.35354573484068" data-palette-color="url(#231ba12e-4001-459d-b3dc-b34efe24e202)"><path d="M5.6 0.5L5.6 0.5Q5 0.5 4.38 0.3 3.75 0.1 3.35-0.65 2.95-1.4 2.95-2.95L2.95-2.95Q2.95-3.95 3.13-5.53 3.3-7.1 3.5-8.6L3.5-8.6Q3.9-11.1 4.23-14.1 4.55-17.1 4.55-20.05L4.55-20.05Q4.55-21.1 4.5-22.25 4.45-23.4 4.3-24.45L4.3-24.45Q4-24.3 3.63-24.18 3.25-24.05 3-24.05L3-24.05Q2.5-24.05 2.33-24.58 2.15-25.1 2.15-25.8L2.15-25.8Q2.15-27.4 2.93-28.38 3.7-29.35 5.25-30.15L5.25-30.15Q7.3-31.3 9.63-31.83 11.95-32.35 14.05-32.35L14.05-32.35Q17.15-32.35 19.55-31.25 21.95-30.15 23.3-28.15 24.65-26.15 24.65-23.35L24.65-23.35Q24.65-20.45 23.28-18.2 21.9-15.95 19.78-14.53 17.65-13.1 15.45-12.65L15.45-12.65Q16.25-11.4 17.18-10.15 18.1-8.9 19.05-7.9L19.05-7.9Q21.9-4.95 24.85-4.95L24.85-4.95Q25.65-4.95 26.25-5.05L26.25-5.05Q26.55-5.1 26.78-4.83 27-4.55 27-3.75L27-3.75Q27-2.8 26.6-1.83 26.2-0.85 25.25-0.2 24.3 0.45 22.65 0.45L22.65 0.45Q20.7 0.45 18.93-0.85 17.15-2.15 15.65-4.17 14.15-6.2 12.98-8.45 11.8-10.7 11-12.6L11-12.6Q10.8-13.15 10.65-13.68 10.5-14.2 10.5-14.7L10.5-14.7Q10.5-15.55 11.05-16.1L11.05-16.1Q11.45-16.5 12.18-16.65 12.9-16.8 14.3-16.8L14.3-16.8Q16.95-16.8 18.6-18.25 20.25-19.7 20.25-22L20.25-22Q20.25-24.5 18.38-25.65 16.5-26.8 13.8-26.8L13.8-26.8Q11.6-26.8 9.2-26.1L9.2-26.1Q9.05-22.85 8.5-18.65L8.5-18.65Q8.2-16.15 7.98-13.7 7.75-11.25 7.75-9.25L7.75-9.25Q7.75-7.5 8.08-6.18 8.4-4.85 9.4-3.9L9.4-3.9Q10.1-3.2 10.1-2.4L10.1-2.4Q10.1-1.3 8.85-0.4 7.6 0.5 5.6 0.5ZM31.7 0.55L31.7 0.55Q31.15 0.55 30.65 0.23 30.15-0.1 30.25-0.65L30.25-0.65Q31-4.65 31.52-8.78 32.05-12.9 32.05-17.1L32.05-17.1Q32.05-20.8 31.8-23.8 31.55-26.8 30.2-29.55L30.2-29.55Q29.95-30.1 29.8-30.5 29.65-30.9 29.65-31.25L29.65-31.25Q29.65-32.2 30.75-33.1 31.85-34 33.1-34L33.1-34Q34.9-34 35.55-31.8 36.2-29.6 36.2-25.3L36.2-25.3Q36.2-20.15 35.6-16.32 35-12.5 34.55-10.5L34.55-10.5 34.75-10.4Q35.75-12.85 37.3-15.13 38.85-17.4 40.87-18.9 42.9-20.4 45.3-20.4L45.3-20.4Q47.65-20.4 48.92-19 50.2-17.6 50.2-15.65L50.2-15.65Q50.2-13.35 48.55-11.55 46.9-9.75 44.25-8.55L44.25-8.55Q44.9-6.85 46.1-5.88 47.3-4.9 49.15-4.9L49.15-4.9Q49.75-4.9 50.15-5L50.15-5Q50.8-5.15 50.8-3.75L50.8-3.75Q50.8-2.95 50.5-1.95 50.2-0.95 49.32-0.23 48.45 0.5 46.7 0.5L46.7 0.5Q44.35 0.5 42.87-0.88 41.4-2.25 40.57-4.28 39.75-6.3 39.3-8.3L39.3-8.3Q38.9-10.15 40.55-10.25L40.55-10.25Q42.3-10.45 43.5-11.3 44.7-12.15 44.7-13.55L44.7-13.55Q44.7-15.15 43.15-15.15L43.15-15.15Q42.15-15.15 41.12-14.43 40.1-13.7 39.22-12.7 38.35-11.7 37.8-10.75L37.8-10.75Q37.05-9.45 36.5-8.2 35.95-6.95 35.6-5.7L35.6-5.7 35.6-3.7Q35.6-1.85 34.52-0.65 33.45 0.55 31.7 0.55Z" opacity="1" transform="matrix(1,0,0,1,0,0)" fill="black" class="wordmark-text-0" id="SvgjsPath1154"></path></svg></g></svg></g></svg></g></svg></g><g transform="matrix(1,0,0,1,36.672,0)"><svg viewBox="0 0 118.656 118.656" height="118.656" width="118.656"><g><svg xmlns="http://www.w3.org/2000/svg" xmlns:xlink="http://www.w3.org/1999/xlink" version="1.1" x="0" y="0" viewBox="1 1 126 126" style="enable-background:new 0 0 128 128;" xml:space="preserve" height="118.656" width="118.656" class="icon-icon-0" data-fill-palette-color="accent" id="SvgjsSvg1153"><g fill="black"><path d="M110.937 52.703c-7.691-4.44-16.653-5.62-25.231-3.321-8.267 2.215-15.218 7.411-19.687 14.668 9.403 17.409 3.288 39.323-13.954 49.278-5.771 3.331-12.084 4.915-18.313 4.915-0.632 0-1.264-0.028-1.894-0.062C41.271 123.777 52.257 127 64 127c31.814 0 58.104-23.586 62.378-54.223C124.154 64.602 118.837 57.265 110.937 52.703z" fill="black"></path><path d="M64 1c-8.339 0-16.291 1.635-23.575 4.577C34.448 11.591 30.749 19.872 30.749 29c0 18.01 14.396 32.711 32.285 33.226 4.938-8.026 12.624-13.774 21.766-16.224 9.482-2.54 19.386-1.237 27.887 3.671 6.348 3.666 11.181 8.957 14.295 15.043C126.983 64.476 127 64.24 127 64 127 29.206 98.795 1 64 1z" fill="black"></path><path d="M50.314 110.297c15.598-9.006 21.13-28.825 12.632-44.574C43.168 65.162 27.249 48.91 27.249 29c0-7.337 2.17-14.175 5.891-19.918C13.961 19.882 1 40.421 1 64c0 20.167 9.486 38.105 24.228 49.636C33.414 115.793 42.419 114.854 50.314 110.297z" fill="black"></path></g></svg></g></svg></g><g></g></svg></g></svg></g></svg></g></svg></g><defs><mask></mask></defs></svg><rect width="320" height="360" fill="black" stroke="none" visibility="hidden"></rect></g></mask></svg><rect width="320" height="360" fill="black" stroke="none" visibility="hidden"></rect></g></mask></svg><rect width="320" height="360" fill="black" stroke="none" visibility="hidden"></rect></g></mask><linearGradient x1="0" x2="1" y1="0.578" y2="0.595" id="680d1bb9-4120-4158-89c9-093059f4545f"><stop stop-color="#6ee2f5" offset="0"></stop><stop stop-color="#6454f0" offset="1"></stop></linearGradient></svg><rect width="320" height="360" fill="none" stroke="none" visibility="hidden"></rect></g></svg></g></svg>